ply
format ascii 1.0
comment deterministic 5-gaussian CPU fallback scene for gaussian_splatting_scene_minimal
element vertex 5
property float x
property float y
property float z
property float scale_x
property float scale_y
property float scale_z
property float opacity
property uchar red
property uchar green
property uchar blue
end_header
0.000000 0.000000 0.850000 0.180000 0.120000 0.090000 0.720000 226 172 128
-0.450000 0.250000 0.350000 0.140000 0.180000 0.100000 0.610000 92 152 222
0.480000 0.180000 0.300000 0.160000 0.110000 0.130000 0.680000 216 96 88
-0.180000 -0.420000 0.420000 0.120000 0.160000 0.080000 0.570000 72 204 132
0.150000 -0.120000 0.380000 0.210000 0.130000 0.120000 0.740000 238 222 116
